# xmcd
#
# Track frame offsets: 
#        150
#        16602
#        53718
#        80705
#        93312
#        121873
#        149568
#        169544
#        198373
#        219663
#        240856
#        274088
#        293090
#        316998
#
# Disc length: 4510 seconds
#
# Revision: 3
# Processed by: cddbd v1.5.2PL0 Copyright (c) Steve Scherf et al.
# Submitted via: ExactAudioCopy v1.0b3
#
DISCID=bb119c0e
DTITLE=Various Artist - Blues Paradise  Vol.5
DYEAR=2000
DGENRE=Blues
TTITLE0=Freddie and The Screamers - Raised On The Blues
TTITLE1=Albatross - Full Moon On Main Street
TTITLE2=Fred James - Liff Is Hard
TTITLE3=Roy Buchanan - My Sonata
TTITLE4=Walter Trout Band - The Reason I'm Gone
TTITLE5=Tony Sarno - Don't Let Me Down
TTITLE6=Eric Culberson and The Erox Band - Morning Light Blues
TTITLE7=Paul Rodger - Standing Around Crying
TTITLE8=Preston Shannon - Jail Of Love
TTITLE9=The Beat Daddys - Woman's Got The Power
TTITLE10=Luther Allison - Bad News Is Comming
TTITLE11=Snowy White - Little Wing
TTITLE12=Vargas Blues Band - Do You Believe In Love?
TTITLE13=Pat Boyack and The Prowlers - I Known It's Over
EXTD=YEAR: 2000
EXTT0=
EXTT1=
EXTT2=
EXTT3=
EXTT4=
EXTT5=
EXTT6=
EXTT7=
EXTT8=
EXTT9=
EXTT10=
EXTT11=
EXTT12=
EXTT13=
PLAYORDER=
